<?xml version="1.0" encoding="UTF-8"?>
<svg xmlns="http://www.w3.org/2000/svg" viewBox="0 0 100 100">
  <g fill="#13227a">
    <path d="M50,5c-1.1,0-2,0.9-2,2v10c0,1.1,0.9,2,2,2s2-0.9,2-2V7C52,5.9,51.1,5,50,5z"/>
    <path d="M50,20c-16.5,0-30,13.5-30,30s13.5,30,30,30s30-13.5,30-30S66.5,20,50,20z M50,75c-13.8,0-25-11.2-25-25s11.2-25,25-25s25,11.2,25,25S63.8,75,50,75z"/>
    <path d="M50,30c-11,0-20,9-20,20s9,20,20,20s20-9,20-20S61,30,50,30z M50,65c-8.3,0-15-6.7-15-15s6.7-15,15-15s15,6.7,15,15S58.3,65,50,65z"/>
    <circle cx="50" cy="50" r="5"/>
    <path d="M86,48h-6c-1.1,0-2,0.9-2,2s0.9,2,2,2h6c1.1,0,2-0.9,2-2S87.1,48,86,48z"/>
    <path d="M20,48h-6c-1.1,0-2,0.9-2,2s0.9,2,2,2h6c1.1,0,2-0.9,2-2S21.1,48,20,48z"/>
    <path d="M50,81c-1.1,0-2,0.9-2,2v10c0,1.1,0.9,2,2,2s2-0.9,2-2V83C52,81.9,51.1,81,50,81z"/>
    <path d="M74.1,29.3c0.8-0.8,0.8-2,0-2.8c-0.8-0.8-2-0.8-2.8,0L60.7,37c-0.8,0.8-0.8,2,0,2.8c0.4,0.4,0.9,0.6,1.4,0.6s1-0.2,1.4-0.6L74.1,29.3z"/>
    <path d="M39.3,37L28.7,26.4c-0.8-0.8-2-0.8-2.8,0c-0.8,0.8-0.8,2,0,2.8l10.6,10.6c0.4,0.4,0.9,0.6,1.4,0.6s1-0.2,1.4-0.6C40.1,39,40.1,37.8,39.3,37z"/>
    <path d="M74.1,70.7L63.5,60.1c-0.8-0.8-2-0.8-2.8,0c-0.8,0.8-0.8,2,0,2.8l10.6,10.6c0.4,0.4,0.9,0.6,1.4,0.6s1-0.2,1.4-0.6C74.9,72.7,74.9,71.5,74.1,70.7z"/>
    <path d="M39.3,60.1c-0.8-0.8-2-0.8-2.8,0L25.9,70.7c-0.8,0.8-0.8,2,0,2.8c0.4,0.4,0.9,0.6,1.4,0.6s1-0.2,1.4-0.6l10.6-10.6C40.1,62.1,40.1,60.9,39.3,60.1z"/>
  </g>
</svg>